<svg width="580" height="447" viewBox="0 0 580 447" fill="none" xmlns="http://www.w3.org/2000/svg">
<path d="M269.514 67.9691C224.773 65.2695 177.956 37.9739 134.073 64.2977C101.14 84.0585 96.28 122.836 105.966 159.154C131.3 254.551 273.157 270.736 353.046 246.74C435.87 221.964 529.285 137.126 475.739 50.7998C453.699 15.2256 415.222 8.95057 373.265 20.8047C337.618 30.7631 304.581 70.0807 269.514 67.9691Z" fill="#90CAF9"/>
<path opacity="0.9" d="M269.514 67.9691C224.773 65.2695 177.956 37.9739 134.073 64.2977C101.14 84.0585 96.28 122.836 105.966 159.154C131.3 254.551 273.157 270.736 353.046 246.74C435.87 221.964 529.285 137.126 475.739 50.7998C453.699 15.2256 415.222 8.95057 373.265 20.8047C337.618 30.7631 304.581 70.0807 269.514 67.9691Z" fill="white"/>
<path d="M290 447C414.216 447 514.912 440.919 514.912 433.418C514.912 425.917 414.216 419.836 290 419.836C165.784 419.836 65.0876 425.917 65.0876 433.418C65.0876 440.919 165.784 447 290 447Z" fill="#F5F5F5"/>
<path d="M403.854 72.4203C401.383 69.8647 396.627 60.1822 401.186 55.623C405.745 51.0637 409.805 55.203 410.118 57.4227C410.431 59.6423 409.596 78.3473 403.854 72.4203Z" fill="#263238"/>
<path d="M402.81 420.712L392.451 420.808L389.633 396.044L399.98 395.948L402.81 420.712Z" fill="#FF8B7B"/>
<path d="M392.44 419.572L403.738 419.464C403.947 419.468 404.149 419.539 404.315 419.668C404.482 419.798 404.605 419.978 404.666 420.184L407.404 429.675C407.477 429.896 407.497 430.131 407.463 430.362C407.429 430.593 407.341 430.812 407.208 431C407.075 431.188 406.9 431.341 406.698 431.444C406.495 431.548 406.272 431.599 406.047 431.594C401.975 431.594 396.059 431.366 390.967 431.414C384.981 431.414 382.313 431.846 375.283 431.918C371.038 431.918 369.483 427.527 371.281 427.119C379.251 425.211 383.369 424.96 390.039 420.436C390.741 419.913 391.575 419.612 392.44 419.572Z" fill="#263238"/>
<path opacity="0.2" d="M389.633 396.056L391.094 408.822L401.441 408.726L399.991 395.96L389.633 396.056Z" fill="black"/>
<path d="M388.159 421.48C389.276 421.459 390.388 421.319 391.477 421.06C391.529 421.052 391.576 421.027 391.612 420.987C391.648 420.948 391.67 420.898 391.674 420.844C391.679 420.792 391.668 420.74 391.643 420.695C391.618 420.65 391.58 420.614 391.535 420.592C391.048 420.34 386.698 418.193 385.503 418.948C385.393 419.021 385.302 419.123 385.241 419.243C385.18 419.363 385.151 419.497 385.155 419.632C385.152 419.863 385.201 420.092 385.298 420.3C385.394 420.508 385.536 420.69 385.712 420.832C386.437 421.319 387.297 421.547 388.159 421.48ZM390.642 420.712C388.403 421.12 386.698 421.036 386.002 420.46C385.881 420.363 385.785 420.237 385.723 420.092C385.66 419.948 385.632 419.79 385.642 419.632C385.635 419.583 385.643 419.533 385.663 419.488C385.684 419.443 385.717 419.406 385.758 419.38C386.408 418.972 388.867 419.932 390.642 420.712Z" fill="#90CAF9"/>
<path d="M391.431 421.132C391.485 421.128 391.538 421.107 391.581 421.072C391.616 421.045 391.643 421.008 391.657 420.965C391.672 420.922 391.674 420.876 391.663 420.832C391.663 420.64 390.851 416.033 388.391 416.321C387.742 416.393 387.556 416.741 387.521 417.005C387.347 418.205 390.004 420.532 391.326 421.108L391.431 421.132ZM388.6 416.813C390.085 416.813 390.827 419.32 391.083 420.412C389.714 419.62 387.904 417.797 388.008 417.077C388.008 417.077 388.009 416.873 388.449 416.825L388.6 416.813Z" fill="#90CAF9"/>
<path d="M395.49 126.496L394.423 127.695L393.426 128.715C392.764 129.387 392.08 130.023 391.396 130.647C390.035 131.911 388.643 133.11 387.22 134.246C384.348 136.607 381.325 138.763 378.172 140.701C376.582 141.673 374.947 142.597 373.288 143.473C371.629 144.349 369.878 145.105 368.114 145.872C364.499 147.364 360.732 148.431 356.886 149.052L356.027 149.184C355.469 149.258 354.908 149.294 354.345 149.292C353.053 149.279 351.775 149.019 350.575 148.524C349.385 148.03 348.295 147.31 347.362 146.4C346.618 145.667 345.971 144.836 345.436 143.929C344.696 142.612 344.137 141.195 343.778 139.717C343.496 138.573 343.291 137.411 343.163 136.238C342.952 134.21 342.894 132.168 342.989 130.131C343.07 128.187 343.221 126.316 343.43 124.48C343.87 120.796 344.497 117.281 345.262 113.682C346.028 110.082 346.898 106.759 348.023 103.279L355.644 104.839C355.366 111.582 355.053 118.493 355.262 125.02C355.3 128.051 355.61 131.071 356.19 134.042C356.304 134.591 356.463 135.129 356.665 135.65C356.828 136.058 357.025 136.31 357.013 136.202C356.946 136.019 356.839 135.855 356.7 135.722C356.384 135.406 356.015 135.154 355.61 134.978C355.193 134.797 354.75 134.687 354.299 134.654C354.09 134.654 353.997 134.654 353.87 134.654H353.997L354.241 134.582C356.989 133.852 359.662 132.848 362.222 131.583C364.9 130.246 367.493 128.731 369.982 127.047C372.499 125.32 374.982 123.448 377.371 121.468C378.531 120.485 379.749 119.453 380.851 118.409L382.545 116.825L383.357 116.045L384.064 115.349L395.49 126.496Z" fill="#FF8B7B"/>
<path d="M401.627 122.26C401.233 110.946 392.254 107.011 381.002 114.725C376.042 117.978 371.266 121.524 366.699 125.344L373.973 149.508C373.973 149.508 387.893 144.937 395.943 135.962C401.36 129.867 401.766 126.112 401.627 122.26Z" fill="#263238"/>
<path opacity="0.2" d="M387.927 127.083C387.927 127.083 381.211 137.018 378.833 147.576C382.135 146.12 385.316 144.386 388.345 142.393L387.927 127.083Z" fill="black"/>
<path d="M355.262 108.426L359.159 99.32L348.128 95.9845C348.128 95.9845 346.237 100.34 347.316 107.815L355.262 108.426Z" fill="#FF8B7B"/>
<path d="M360.331 88.6417L350.738 89.8295L348.128 95.9845L359.159 99.32L360.331 88.6417Z" fill="#FF8B7B"/>
<path d="M387.997 204.279C387.997 204.279 380.875 266.021 380.086 299.064C379.274 333.39 385.781 402.631 385.781 402.631L404.469 402.223C404.469 402.223 406.719 328.099 409.434 294.133C412.38 257.107 419.804 203.607 419.804 203.607L387.997 204.279Z" fill="#90CAF9"/>
<path opacity="0.6" d="M387.997 204.279C387.997 204.279 380.875 266.021 380.086 299.064C379.274 333.39 385.781 402.631 385.781 402.631L404.469 402.223C404.469 402.223 406.719 328.099 409.434 294.133C412.38 257.107 419.804 203.607 419.804 203.607L387.997 204.279Z" fill="white"/>
<path opacity="0.2" d="M410.257 221.76C401.905 240.801 404.144 283.334 408.888 301.571C409.062 298.92 409.248 296.412 409.434 294.097C411.371 269.693 415.234 238.15 417.681 219.469C415.408 216.061 412.867 215.797 410.257 221.76Z" fill="black"/>
<path d="M406.766 403.051L384.795 403.507L383.171 395.96L406.499 395.9L406.766 403.051Z" fill="#90CAF9"/>
<path d="M448.967 420.712L438.619 420.808L435.801 396.044L446.148 395.948L448.967 420.712Z" fill="#FF8B7B"/>
<path d="M438.596 419.572L449.906 419.464C450.114 419.469 450.315 419.541 450.482 419.67C450.648 419.8 450.771 419.979 450.834 420.184L453.572 429.675C453.642 429.896 453.66 430.13 453.625 430.36C453.589 430.59 453.502 430.807 453.369 430.995C453.237 431.182 453.063 431.335 452.862 431.439C452.661 431.543 452.439 431.596 452.214 431.594C448.131 431.594 442.227 431.366 437.134 431.414C431.149 431.414 428.469 431.846 421.451 431.918C417.206 431.918 415.651 427.527 417.449 427.119C425.407 425.211 429.525 424.96 436.206 420.436C436.904 419.913 437.735 419.612 438.596 419.572Z" fill="#263238"/>
<path opacity="0.2" d="M435.801 396.056L437.251 408.822L447.609 408.726L446.159 395.96L435.801 396.056Z" fill="black"/>
<path d="M434.327 421.48C435.444 421.458 436.556 421.317 437.645 421.06C437.695 421.052 437.741 421.026 437.775 420.986C437.809 420.947 437.828 420.897 437.83 420.844C437.838 420.794 437.83 420.742 437.807 420.697C437.784 420.651 437.747 420.615 437.703 420.592C437.204 420.34 432.854 418.193 431.671 418.948C431.559 419.02 431.467 419.121 431.406 419.241C431.345 419.361 431.316 419.497 431.323 419.632C431.32 419.862 431.368 420.089 431.463 420.297C431.557 420.505 431.696 420.688 431.868 420.832C432.598 421.318 433.461 421.545 434.327 421.48ZM436.81 420.712C434.571 421.12 432.866 421.036 432.17 420.46C432.05 420.362 431.954 420.235 431.89 420.092C431.825 419.948 431.794 419.791 431.798 419.632C431.792 419.583 431.799 419.533 431.82 419.488C431.84 419.443 431.873 419.406 431.914 419.38C432.564 418.972 435 419.932 436.81 420.712Z" fill="#90CAF9"/>
<path d="M437.587 421.132C437.623 421.131 437.658 421.122 437.69 421.106C437.722 421.089 437.75 421.066 437.773 421.038C437.796 421.01 437.813 420.977 437.823 420.941C437.833 420.906 437.835 420.869 437.83 420.832C437.83 420.64 437.018 416.033 434.559 416.321C433.91 416.393 433.724 416.741 433.678 417.005C433.515 418.205 436.172 420.532 437.494 421.108L437.587 421.132ZM434.768 416.813C436.241 416.813 436.995 419.32 437.25 420.412C435.882 419.62 434.06 417.797 434.165 417.077C434.165 417.077 434.165 416.873 434.606 416.825L434.768 416.813Z" fill="#90CAF9"/>
<path d="M406.232 203.871C406.232 203.871 411.394 270.304 415.164 303.083C419.073 337.182 431.949 402.595 431.949 402.595L450.637 402.187C450.637 402.187 445.51 327.919 443.526 293.893C441.357 256.759 440.8 203.055 440.8 203.055L406.232 203.871Z" fill="#90CAF9"/>
<path opacity="0.6" d="M406.232 203.871C406.232 203.871 411.394 270.304 415.164 303.083C419.073 337.182 431.949 402.595 431.949 402.595L450.637 402.187C450.637 402.187 445.51 327.919 443.526 293.893C441.357 256.759 440.8 203.055 440.8 203.055L406.232 203.871Z" fill="white"/>
<path d="M452.934 403.051L430.952 403.507L429.339 395.96L452.667 395.9L452.934 403.051Z" fill="#90CAF9"/>
<path d="M386.709 111.762C386.709 111.762 379.065 141.109 387.997 204.279C404.678 203.907 432.692 203.235 440.8 203.079C441.009 194.285 434.733 151.164 442.076 109.59C436.794 108.647 431.451 108.109 426.091 107.983C418.246 107.686 410.392 107.863 402.567 108.511C397.207 109.166 391.905 110.253 386.709 111.762Z" fill="#263238"/>
<path opacity="0.2" d="M438.874 139.178L430.232 131.775C430.801 137.558 435.858 151.728 438.526 158.902C438.48 152.615 438.538 145.98 438.874 139.178Z" fill="black"/>
<path d="M407.961 128.775L398.53 148.08C398.331 148.485 398.261 148.946 398.331 149.395C398.401 149.844 398.607 150.258 398.919 150.578C399.231 150.898 399.633 151.108 400.068 151.176C400.502 151.245 400.947 151.169 401.337 150.96L407.497 147.456C407.831 147.27 408.21 147.185 408.59 147.21C408.969 147.236 409.334 147.371 409.643 147.6L415.709 152.123C416.058 152.386 416.479 152.525 416.909 152.521C417.34 152.516 417.758 152.369 418.102 152.1C418.445 151.83 418.696 151.454 418.816 151.026C418.937 150.598 418.921 150.142 418.772 149.724L411.684 129.111C411.561 128.719 411.329 128.373 411.017 128.117C410.705 127.86 410.327 127.704 409.93 127.668C409.533 127.632 409.134 127.718 408.784 127.915C408.434 128.112 408.148 128.411 407.961 128.775Z" fill="white"/>
<path d="M423.191 80.5791C421.869 88.4498 420.686 102.824 426.091 107.923C426.091 107.923 424.514 115.05 410.118 117.521C400.444 114.306 402.567 108.499 402.567 108.499C410.965 106.219 410.605 99.752 409.016 93.705L423.191 80.5791Z" fill="#FF8B7B"/>
<path opacity="0.2" d="M417.414 85.9181L409.016 93.6448C409.407 95.0535 409.679 96.4947 409.828 97.9522C413.053 97.4002 417.403 93.6329 417.67 90.1414C417.834 88.7293 417.748 87.298 417.414 85.9181Z" fill="black"/>
<path d="M427.796 70.8966C425.001 81.119 423.876 87.25 417.704 91.4373C408.424 97.7243 397.045 90.2375 396.824 79.3313C396.616 69.5409 401.209 54.4593 411.904 52.5396C414.254 52.1085 416.67 52.305 418.926 53.1105C421.181 53.9159 423.2 55.3036 424.791 57.142C426.383 58.9805 427.494 61.2088 428.02 63.6158C428.546 66.0229 428.469 68.529 427.796 70.8966Z" fill="#FF8B7B"/>
<path d="M421.846 77.1596C420.546 73.8961 419.607 63.1458 425.024 60.5062C430.441 57.8667 436.067 64.3096 434.64 67.3571C432.448 72.0844 424.862 84.7183 421.846 77.1596Z" fill="#263238"/>
<path d="M425.082 64.2977C423.748 60.6982 407.845 58.6586 405.617 54.7832C402.973 50.1759 413.819 49.624 421.277 51.9636C427.831 54.0273 432.205 56.019 431.439 61.0582C431.01 63.9137 425.082 64.2977 425.082 64.2977Z" fill="#263238"/>
<path d="M428.539 60.5902C428.539 60.5902 432.019 61.574 433.921 58.9344C433.318 61.55 430.36 64.1896 428.539 60.5902Z" fill="#263238"/>
<path d="M412.612 49.492C407.833 45.6527 401.325 50.1639 401.94 55.1671C402.555 60.1703 418.667 63.9737 418.667 63.9737C418.667 63.9737 418.957 54.5912 412.612 49.492Z" fill="#263238"/>
<path d="M401.952 55.1911C402.682 58.6945 405.153 61.4421 410.153 63.4818C407.259 61.2686 405.067 58.2158 403.854 54.7112L401.952 55.1911Z" fill="#263238"/>
<path d="M411.986 70.3808C411.812 71.2326 411.243 71.8205 410.71 71.7005C410.176 71.5806 409.886 70.7887 410.06 69.9488C410.234 69.109 410.814 68.521 411.348 68.641C411.881 68.761 412.171 69.5889 411.986 70.3808Z" fill="#263238"/>
<path d="M402.775 68.317C402.59 69.1569 402.021 69.7448 401.488 69.6248C400.954 69.5048 400.664 68.7249 400.838 67.8851C401.012 67.0452 401.592 66.4573 402.126 66.5653C402.659 66.6733 402.949 67.4771 402.775 68.317Z" fill="#263238"/>
<path d="M405.617 69.3969C404.103 71.7571 402.28 73.889 400.2 75.7318C401.36 77.4476 403.947 77.3636 403.947 77.3636L405.617 69.3969Z" fill="#FF5652"/>
<path d="M405.826 80.2311C406.915 80.5109 408.054 80.5141 409.145 80.2404C410.235 79.9667 411.246 79.4243 412.09 78.6593C412.113 78.6359 412.132 78.6079 412.144 78.577C412.157 78.5461 412.163 78.5129 412.163 78.4794C412.163 78.4458 412.157 78.4126 412.144 78.3817C412.132 78.3508 412.113 78.3228 412.09 78.2994C412.043 78.2538 411.981 78.2285 411.916 78.2285C411.852 78.2285 411.789 78.2538 411.742 78.2994C410.95 78.9889 410.013 79.4771 409.006 79.725C407.999 79.9729 406.95 79.9737 405.942 79.7271C405.878 79.7128 405.81 79.7256 405.755 79.7628C405.699 79.7999 405.66 79.8583 405.646 79.9251C405.633 79.9919 405.645 80.0617 405.681 80.1191C405.717 80.1765 405.773 80.2168 405.838 80.2311H405.826Z" fill="#263238"/>
<path d="M415.408 67.933C415.497 67.9514 415.589 67.9444 415.674 67.9126C415.76 67.8808 415.835 67.8255 415.892 67.7527C415.95 67.6799 415.987 67.5923 415.999 67.4993C416.012 67.4063 416 67.3115 415.964 67.2251C415.651 66.4862 415.172 65.8351 414.567 65.326C413.962 64.8168 413.248 64.4643 412.484 64.2976C412.356 64.2803 412.225 64.3158 412.121 64.3965C412.017 64.4772 411.948 64.5967 411.928 64.7295C411.918 64.7949 411.92 64.8617 411.935 64.926C411.95 64.9904 411.978 65.051 412.015 65.1045C412.053 65.158 412.101 65.2032 412.155 65.2377C412.21 65.2722 412.27 65.2952 412.334 65.3054C412.936 65.4422 413.497 65.726 413.971 66.133C414.445 66.54 414.819 67.0585 415.06 67.6451C415.092 67.7177 415.14 67.7815 415.201 67.8315C415.261 67.8815 415.332 67.9162 415.408 67.933Z" fill="#263238"/>
<path d="M399.411 64.1297C399.502 64.1558 399.599 64.1525 399.688 64.1203C399.777 64.0882 399.855 64.0287 399.91 63.9498C400.277 63.4401 400.755 63.0269 401.305 62.7434C401.856 62.46 402.462 62.3143 403.077 62.318C403.206 62.3308 403.335 62.2899 403.435 62.2044C403.535 62.1189 403.598 61.9957 403.611 61.8621C403.623 61.7284 403.583 61.5952 403.501 61.4917C403.418 61.3882 403.299 61.3229 403.17 61.3102C402.391 61.2863 401.619 61.4571 400.918 61.808C400.218 62.1589 399.609 62.6796 399.145 63.3259C399.103 63.3772 399.073 63.4366 399.054 63.5006C399.036 63.5645 399.031 63.6316 399.038 63.6978C399.046 63.764 399.066 63.8279 399.099 63.8857C399.131 63.9434 399.174 63.9938 399.226 64.0338C399.279 64.0818 399.342 64.1149 399.411 64.1297Z" fill="#263238"/>
<path d="M444.605 117.773C446.716 121.588 448.479 125.284 450.312 129.087C452.145 132.891 453.792 136.718 455.358 140.629C456.924 144.541 458.444 148.512 459.766 152.627C461.141 156.732 462.303 160.909 463.246 165.141L463.954 168.417C464.263 169.955 464.396 171.526 464.348 173.096C464.25 176.014 463.624 178.887 462.504 181.567C460.534 186.082 457.733 190.158 454.256 193.565C451.155 196.662 447.776 199.446 444.164 201.88C442.413 203.079 440.603 204.183 438.782 205.239C436.961 206.295 435.151 207.267 433.121 208.191L429.27 201.22C430.673 200.02 432.216 198.82 433.655 197.524C435.093 196.228 436.497 194.909 437.889 193.589C440.576 191.01 443.07 188.222 445.347 185.25C447.373 182.702 448.944 179.801 449.987 176.684C450.346 175.522 450.488 174.301 450.405 173.084C450.371 172.595 450.281 172.112 450.138 171.644L449.349 168.957C447.005 161.502 444.216 154.205 440.997 147.108C439.408 143.509 437.715 139.91 436.021 136.31C434.327 132.711 432.541 129.111 430.813 125.692L444.605 117.773Z" fill="#FF8B7B"/>
<path d="M442.47 109.65C452.145 111.81 458.873 137.918 458.873 137.918L441.577 154.151C436.078 147.823 431.753 140.503 428.817 132.555C424.235 119.489 432.123 107.323 442.47 109.65Z" fill="#263238"/>
<path d="M431.369 199.984L420.245 200.104L427.205 211.706C427.205 211.706 435.128 209.678 435.835 205.563L431.369 199.984Z" fill="#FF8B7B"/>
<path d="M413.32 206.955L419.456 216.265L427.147 211.706L420.245 200.104L413.32 206.955Z" fill="#FF8B7B"/>
<path d="M430.836 80.255C429.6 82.607 427.515 84.3581 425.036 85.1262C421.741 86.122 420.059 83.0865 420.941 79.859C421.741 76.9555 424.421 72.9362 427.715 73.3561C431.01 73.776 432.309 77.3634 430.836 80.255Z" fill="#FF8B7B"/>
<path d="M332.24 278.771L319.872 279.699L319.956 280.896L332.324 279.968L332.24 278.771Z" fill="#90CAF9"/>
<path d="M343.353 277.942L337.279 278.398L337.363 279.594L343.437 279.139L343.353 277.942Z" fill="#90CAF9"/>
<path d="M396.72 137.102L191.91 152.375C187.648 152.719 183.688 154.788 180.891 158.133C178.094 161.478 176.685 165.828 176.97 170.241L183.93 270.089C184.259 274.504 186.261 278.606 189.5 281.503C192.739 284.399 196.953 285.855 201.225 285.554L212.825 284.69C213.668 284.627 214.5 284.913 215.14 285.484C215.779 286.056 216.173 286.866 216.236 287.738L217.535 306.239C217.556 306.597 217.68 306.941 217.892 307.225C218.103 307.51 218.392 307.723 218.721 307.836C219.051 307.95 219.405 307.959 219.739 307.862C220.074 307.766 220.372 307.568 220.597 307.295L240.016 284.078C240.832 283.106 241.987 282.506 243.229 282.411L406 270.28C410.265 269.94 414.227 267.872 417.027 264.527C419.826 261.182 421.237 256.83 420.952 252.415L413.992 152.567C413.663 148.156 411.664 144.058 408.43 141.162C405.196 138.267 400.988 136.808 396.72 137.102Z" fill="#90CAF9"/>
<path d="M221.827 198.208L232.893 197.38L233.798 210.338L245.885 209.438L244.98 196.48L256.093 195.641L258.68 232.667L247.567 233.494L246.523 218.521L234.436 219.433L235.48 234.406L224.425 235.234L221.827 198.208Z" fill="white"/>
<path opacity="0.2" d="M191.91 152.375C187.648 152.719 183.688 154.788 180.891 158.133C178.094 161.477 176.685 165.828 176.97 170.241L183.93 270.088C184.259 274.504 186.261 278.606 189.5 281.503C192.74 284.399 196.953 285.855 201.225 285.554L202.93 285.422C205.764 285.21 208.45 284.037 210.573 282.085C212.695 280.132 214.135 277.509 214.67 274.624L237.997 148.932L191.91 152.375Z" fill="black"/>
<path d="M293.399 219.157L273.47 220.644C273.623 221.98 274.165 223.235 275.024 224.244C275.517 224.78 276.124 225.192 276.796 225.446C277.468 225.699 278.188 225.789 278.899 225.708C279.876 225.635 280.818 225.305 281.636 224.748C282.277 224.246 282.823 223.628 283.249 222.924L293.109 223.128C292.036 225.643 290.294 227.79 288.086 229.319C286.06 230.647 283.067 231.447 279.108 231.719C276.339 232.052 273.534 231.745 270.895 230.819C268.779 229.9 266.963 228.372 265.663 226.416C264.173 224.189 263.317 221.574 263.192 218.869C262.985 216.99 263.161 215.087 263.709 213.283C264.256 211.479 265.163 209.814 266.371 208.394C268.784 205.611 272.264 204.047 276.811 203.703C279.821 203.333 282.873 203.703 285.72 204.783C287.899 205.746 289.735 207.385 290.974 209.474C292.393 212.069 293.189 214.978 293.294 217.957L293.399 219.157ZM282.959 214.981C282.818 213.421 282.167 211.957 281.114 210.83C280.584 210.408 279.976 210.103 279.327 209.934C278.678 209.765 278.002 209.736 277.342 209.849C276.682 209.961 276.051 210.213 275.489 210.588C274.926 210.963 274.444 211.454 274.073 212.03C273.454 213.159 273.141 214.44 273.168 215.737L282.959 214.981Z" fill="white"/>
<path d="M296.473 192.629L306.437 191.885L309.024 228.899L299.06 229.643L296.473 192.629Z" fill="white"/>
<path d="M313.119 191.381L323.083 190.637L325.67 227.651L315.717 228.395L313.119 191.381Z" fill="white"/>
<path d="M329.869 213.937C329.681 212.06 329.877 210.162 330.444 208.368C331.012 206.573 331.939 204.923 333.164 203.523C335.646 200.668 339.161 199.068 343.708 198.724C348.889 198.34 352.918 199.604 355.795 202.515C358.185 205.122 359.565 208.545 359.674 212.135C359.783 215.725 358.613 219.232 356.387 221.988C353.928 224.82 350.362 226.419 345.692 226.787C342.063 227.238 338.398 226.345 335.344 224.268C333.72 223.102 332.381 221.562 331.431 219.77C330.48 217.977 329.946 215.98 329.869 213.937ZM339.834 213.17C339.815 215.064 340.443 216.903 341.608 218.365C342.078 218.862 342.647 219.248 343.275 219.496C343.904 219.744 344.577 219.847 345.247 219.799C345.918 219.751 346.571 219.553 347.16 219.218C347.75 218.884 348.262 218.42 348.661 217.861C349.599 216.191 349.951 214.237 349.659 212.33C349.67 210.474 349.05 208.673 347.907 207.243C347.46 206.736 346.907 206.342 346.289 206.092C345.672 205.843 345.007 205.744 344.346 205.803C343.657 205.836 342.985 206.033 342.381 206.378C341.778 206.724 341.259 207.208 340.866 207.794C339.931 209.409 339.582 211.314 339.88 213.17H339.834Z" fill="white"/>
<path d="M362.813 187.662L373.427 186.87L374.019 195.269L373.149 212.366L366.583 212.858L363.393 196.06L362.813 187.662ZM365.133 215.593L375.04 214.849L375.678 223.92L365.76 224.652L365.133 215.593Z" fill="white"/>
<path d="M189.08 119.501C189.028 121.257 189.117 123.015 189.347 124.756C178.836 128.387 167.626 129.305 156.693 127.431C157.218 125.379 157.536 123.276 157.644 121.156C157.278 123.291 156.56 125.345 155.521 127.227C153.456 126.82 152.296 126.472 152.296 126.472C152.296 126.472 154.408 114.666 150.603 106.075C146.798 97.4843 148.7 92.6851 151.577 91.3293C156.913 74.364 176.97 77.0396 183.756 83.9265C192.363 92.6611 192.409 117.269 193.94 122.896C192.676 123.46 191.435 123.976 190.194 124.432C189.572 122.86 189.196 121.195 189.08 119.501Z" fill="#263238"/>
<path d="M197.374 145.909L198.418 149.328C198.801 150.528 199.184 151.728 199.578 152.867C200.355 155.267 201.167 157.667 202.037 159.97C202.907 162.274 203.742 164.698 204.647 167.049L205.993 170.649L206.329 171.536L206.41 171.74C206.267 171.611 206.102 171.509 205.923 171.44C205.668 171.344 205.564 171.44 205.726 171.44C206.005 171.439 206.283 171.395 206.55 171.308C207.457 171.011 208.328 170.609 209.148 170.109C211.126 168.916 213.018 167.577 214.809 166.101C216.688 164.59 218.532 162.97 220.342 161.302C222.152 159.634 223.973 157.895 225.724 156.191L229.286 159.31C227.801 161.518 226.235 163.534 224.646 165.585C223.056 167.637 221.27 169.557 219.437 171.464C217.551 173.456 215.497 175.271 213.301 176.888C212.044 177.798 210.694 178.563 209.276 179.167C208.375 179.541 207.431 179.791 206.468 179.911C205.161 180.079 203.834 179.893 202.617 179.371C201.291 178.787 200.161 177.81 199.369 176.564C199.195 176.288 199.033 176.012 198.905 175.76L198.592 175.112L198.174 174.236C197.629 173.036 197.014 171.836 196.539 170.709C195.483 168.309 194.428 165.909 193.465 163.51C192.502 161.11 191.562 158.639 190.669 156.167C190.252 154.967 189.834 153.659 189.44 152.4C189.045 151.14 188.662 149.904 188.28 148.428L197.374 145.909Z" fill="#FFC3BD"/>
<path d="M194.625 135.254C198.627 136.31 201.422 153.323 201.422 153.323L190.402 161.074C190.402 161.074 179.846 143.905 182.92 139.358C186.122 134.63 188.79 133.718 194.625 135.254Z" fill="#90CAF9"/>
<path d="M194.625 135.254C198.627 136.31 201.422 153.323 201.422 153.323L190.402 161.074C190.402 161.074 179.846 143.905 182.92 139.358C186.122 134.63 188.79 133.718 194.625 135.254Z" fill="#90CAF9"/>
<path opacity="0.4" d="M194.625 135.254C198.627 136.31 201.422 153.323 201.422 153.323L190.402 161.074C190.402 161.074 179.846 143.905 182.92 139.358C186.122 134.63 188.79 133.718 194.625 135.254Z" fill="white"/>
<path opacity="0.3" d="M194.265 139.058L197.339 156.203L191.145 160.546L194.265 139.058Z" fill="black"/>
<path d="M225.539 156.599L229.216 147.432L233.752 156.599C233.752 156.599 230.805 161.158 226.919 160.042L225.539 156.599Z" fill="#FFC3BD"/>
<path d="M233.264 146.484L239.088 148.908L233.752 156.599L229.204 147.432L233.264 146.484Z" fill="#FFC3BD"/>
<path d="M172.991 421.672H182.7L183.35 398.432H173.64L172.991 421.672Z" fill="#FFC3BD"/>
<path d="M107.892 391.737L116.812 395.672L128.493 375.564L119.561 371.628L107.892 391.737Z" fill="#FFC3BD"/>
<path d="M118.529 394.305L109.249 388.401C109.09 388.296 108.899 388.255 108.713 388.286C108.527 388.317 108.358 388.418 108.24 388.569L102.66 395.492C102.521 395.673 102.422 395.883 102.368 396.108C102.314 396.332 102.307 396.566 102.348 396.793C102.388 397.02 102.475 397.236 102.603 397.426C102.731 397.615 102.897 397.774 103.089 397.892C106.36 399.896 108.031 400.687 112.114 403.279C114.631 404.887 118.134 407.478 121.603 409.686C125.071 411.894 127.403 408.486 126.115 407.226C120.489 401.671 120.652 399.032 119.596 395.744C119.421 395.147 119.041 394.635 118.529 394.305Z" fill="#263238"/>
<path d="M183.025 420.508H172.132C171.945 420.506 171.763 420.574 171.62 420.7C171.477 420.826 171.383 421 171.355 421.192L170.114 430.119C170.084 430.348 170.102 430.581 170.167 430.802C170.232 431.023 170.343 431.227 170.492 431.399C170.641 431.571 170.825 431.708 171.03 431.8C171.235 431.891 171.457 431.936 171.68 431.93C175.485 431.871 177.318 431.631 182.12 431.631C185.066 431.631 191.168 431.954 195.24 431.954C199.311 431.954 199.52 427.791 197.826 427.407C190.228 425.716 187.236 423.388 184.672 421.168C184.218 420.75 183.633 420.515 183.025 420.508Z" fill="#263238"/>
<path opacity="0.2" d="M183.338 398.444L183.013 410.418H173.304L173.64 398.444H183.338Z" fill="black"/>
<path opacity="0.2" d="M119.561 371.64L128.482 375.563L122.461 385.93L113.541 381.994L119.561 371.64Z" fill="black"/>
<path d="M194.625 135.254C194.625 135.254 199.265 136.934 189.985 195.808H150.545C151.206 179.227 151.229 169.005 143.585 134.966C149.1 133.787 154.69 133.026 160.312 132.687C166.271 132.242 172.252 132.242 178.211 132.687C185.913 133.406 194.625 135.254 194.625 135.254Z" fill="#90CAF9"/>
<path opacity="0.4" d="M194.625 135.254C194.625 135.254 199.265 136.934 189.985 195.808H150.545C151.206 179.227 151.229 169.005 143.585 134.966C149.1 133.787 154.69 133.026 160.312 132.687C166.271 132.242 172.252 132.242 178.211 132.687C185.913 133.406 194.625 135.254 194.625 135.254Z" fill="white"/>
<path d="M160.335 132.675C166.294 132.242 172.275 132.242 178.234 132.675C179.197 132.771 180.183 132.879 181.157 132.999C181.563 133.629 181.823 134.348 181.917 135.099C182.012 135.85 181.938 136.613 181.702 137.33C180.438 140.557 175.902 140.929 172.608 140.929C160.416 140.929 158.352 133.563 158.27 133.251L158.154 132.807L160.335 132.675Z" fill="white"/>
<path d="M162.11 111.846C163.27 117.845 164.372 128.715 160.335 132.687C160.335 132.687 161.913 138.686 172.608 138.686C184.37 138.686 178.234 132.687 178.234 132.687C171.808 131.103 171.982 126.172 173.095 121.552L162.11 111.846Z" fill="#FFC3BD"/>
<path d="M163.282 107.611C161.901 112.326 163.815 123.484 166.657 127.803C161.054 124.48 159.164 114.354 159.164 114.354L163.282 107.611Z" fill="#263238"/>
<path opacity="0.2" d="M166.588 115.805L173.095 121.54C172.81 122.616 172.623 123.716 172.538 124.828C170.091 124.456 166.738 121.672 166.46 119.021C166.316 117.95 166.359 116.861 166.588 115.805Z" fill="black"/>
<path d="M156.797 101.216C159.048 110.898 159.79 115.049 165.428 119.213C173.907 125.464 184.916 120.497 185.507 110.31C186.041 101.144 182.282 86.854 172.364 84.6463C170.179 84.1473 167.907 84.2342 165.763 84.8987C163.619 85.5633 161.676 86.7834 160.116 88.4434C158.556 90.1034 157.433 92.1481 156.852 94.3835C156.271 96.6188 156.252 98.9707 156.797 101.216Z" fill="#FFC3BD"/>
<path d="M189.996 195.808C189.996 195.808 197.641 273.1 196.956 303.695C196.295 335.514 185.02 408.078 185.02 408.078H171.912C171.912 408.078 173.988 337.35 172.828 306.095C171.564 272.02 161.101 195.784 161.101 195.784L189.996 195.808Z" fill="#90CAF9"/>
<path opacity="0.4" d="M189.996 195.808C189.996 195.808 197.641 273.1 196.956 303.695C196.295 335.514 185.02 408.078 185.02 408.078H171.912C171.912 408.078 173.988 337.35 172.828 306.095C171.564 272.02 161.101 195.784 161.101 195.784L189.996 195.808Z" fill="black"/>
<path d="M170.822 408.582H186.203L187.34 403.507L170.102 402.883L170.822 408.582Z" fill="#90CAF9"/>
<path opacity="0.2" d="M173.002 215.041C182.677 235.174 174.94 271.9 171.518 285.566C169.766 265.049 166.808 239.973 164.5 221.532C165.961 211.166 168.536 205.755 173.002 215.041Z" fill="black"/>
<path d="M179.591 195.808C179.591 195.808 170.659 276.196 163.92 301.955C155.927 332.586 125.5 384.742 125.5 384.742L113.332 379.391C113.332 379.391 132.159 320.168 138.284 304.031C151.334 269.597 140.163 218.281 150.591 195.808H179.591Z" fill="#90CAF9"/>
<path opacity="0.4" d="M179.591 195.808C179.591 195.808 170.659 276.196 163.92 301.955C155.927 332.586 125.5 384.742 125.5 384.742L113.332 379.391C113.332 379.391 132.159 320.168 138.284 304.031C151.334 269.597 140.163 218.281 150.591 195.808H179.591Z" fill="black"/>
<path d="M111.65 379.427L126.753 386.074L130.384 381.874L112.961 373.224L111.65 379.427Z" fill="#90CAF9"/>
<path d="M171.68 101.348C171.819 102.14 172.33 102.716 172.84 102.62C173.35 102.524 173.64 101.804 173.501 101.012C173.362 100.22 172.852 99.644 172.341 99.728C171.831 99.812 171.483 100.544 171.68 101.348Z" fill="#263238"/>
<path d="M180.334 99.764C180.461 100.556 180.983 101.132 181.494 101.036C182.004 100.94 182.306 100.22 182.166 99.428C182.027 98.6362 181.517 98.0603 181.006 98.1442C180.496 98.2282 180.194 98.9601 180.334 99.764Z" fill="#263238"/>
<path d="M180.786 98.2402L182.538 97.3403C182.538 97.3403 181.842 99.0081 180.786 98.2402Z" fill="#263238"/>
<path d="M178.257 101.552C179.253 103.245 180.471 104.787 181.876 106.135C181.532 106.495 181.116 106.774 180.658 106.952C180.199 107.131 179.709 107.204 179.22 107.167L178.257 101.552Z" fill="#ED847E"/>
<path d="M175.728 110.922C176.168 110.921 176.606 110.881 177.039 110.802C177.072 110.801 177.105 110.792 177.134 110.777C177.164 110.761 177.19 110.739 177.211 110.713C177.232 110.686 177.247 110.655 177.255 110.622C177.263 110.588 177.264 110.554 177.258 110.52C177.252 110.486 177.24 110.454 177.221 110.426C177.202 110.398 177.177 110.374 177.149 110.357C177.121 110.339 177.089 110.328 177.056 110.324C177.023 110.32 176.99 110.324 176.958 110.334C176.003 110.531 175.016 110.491 174.079 110.218C173.141 109.945 172.279 109.446 171.564 108.763C171.521 108.719 171.462 108.694 171.402 108.694C171.341 108.694 171.283 108.719 171.239 108.763C171.217 108.784 171.199 108.81 171.187 108.839C171.174 108.868 171.168 108.899 171.168 108.931C171.168 108.962 171.174 108.993 171.187 109.022C171.199 109.051 171.217 109.077 171.239 109.098C172.45 110.286 174.06 110.94 175.728 110.922Z" fill="#263238"/>
<path d="M160.08 95.5406C160.334 98.0921 160.721 100.627 161.24 103.135C161.24 103.135 167.04 95.5406 168.003 91.4733C167.773 93.0747 167.323 94.634 166.669 96.1046C166.669 96.1046 174.476 94.3408 175.241 89.0137C175.228 91.3986 174.971 93.7754 174.476 96.1046C174.476 96.1046 181.923 93.081 181.238 87.9699C180.554 82.8587 169.116 80.879 163.838 82.6067C158.56 84.3344 153.398 89.9375 154.953 97.6403C156.507 105.343 159.488 108.235 159.488 108.235C159.488 108.235 157.342 100.472 160.08 95.5406Z" fill="#263238"/>
<path d="M156.391 108.51C157.107 110.288 158.476 111.699 160.196 112.434C162.516 113.394 163.896 111.342 163.49 108.966C163.131 106.819 161.495 103.747 159.094 103.795C158.569 103.819 158.057 103.978 157.606 104.258C157.155 104.538 156.778 104.929 156.51 105.397C156.242 105.865 156.091 106.395 156.07 106.938C156.049 107.482 156.159 108.022 156.391 108.51Z" fill="#FFC3BD"/>
<path d="M161.484 91.8452C160.324 96.6444 162.736 107.683 165.776 111.846C159.976 108.81 157.656 98.7801 157.656 98.7801L161.484 91.8452Z" fill="#263238"/>
<path d="M168.502 98.6121C168.561 98.5934 168.617 98.5626 168.664 98.5214C168.712 98.4801 168.752 98.4294 168.78 98.3721C169.024 97.8309 169.39 97.3573 169.845 96.9902C170.301 96.6232 170.834 96.3731 171.402 96.2604C171.522 96.2425 171.63 96.1779 171.706 96.0798C171.781 95.9817 171.818 95.8575 171.808 95.7325C171.802 95.6698 171.784 95.6089 171.755 95.5535C171.726 95.4982 171.686 95.4494 171.639 95.4102C171.591 95.371 171.536 95.3421 171.478 95.3254C171.419 95.3086 171.358 95.3042 171.297 95.3126C170.578 95.4417 169.898 95.7478 169.317 96.2051C168.736 96.6624 168.269 97.2574 167.956 97.9402C167.917 98.0236 167.902 98.1171 167.913 98.2092C167.924 98.3014 167.96 98.3883 168.018 98.4594C168.076 98.5305 168.152 98.5828 168.238 98.6099C168.324 98.637 168.415 98.6377 168.502 98.6121Z" fill="#263238"/>
<path d="M183.5 94.8927C183.559 94.8953 183.617 94.8849 183.671 94.8621C183.725 94.8393 183.774 94.8047 183.814 94.7608C183.899 94.671 183.946 94.5504 183.946 94.4248C183.946 94.2992 183.899 94.1786 183.814 94.0889C183.319 93.5351 182.705 93.1097 182.022 92.8471C181.339 92.5844 180.605 92.4919 179.881 92.5771C179.821 92.5886 179.763 92.6124 179.712 92.647C179.661 92.6817 179.616 92.7265 179.582 92.779C179.547 92.8314 179.523 92.8904 179.511 92.9526C179.499 93.0147 179.498 93.0788 179.51 93.141C179.535 93.2624 179.605 93.3689 179.704 93.4382C179.804 93.5075 179.925 93.5344 180.044 93.513C180.615 93.447 181.193 93.5212 181.731 93.7297C182.269 93.9381 182.752 94.275 183.141 94.7128C183.184 94.7686 183.239 94.8137 183.301 94.8448C183.363 94.876 183.431 94.8923 183.5 94.8927Z" fill="#263238"/>
<path d="M148.399 149.208C146.786 154.475 145.244 160.006 143.933 165.453C142.613 170.831 141.648 176.294 141.044 181.807L140.952 182.815C140.952 183.139 140.952 183.211 140.952 183.498C140.964 184.064 141.007 184.629 141.079 185.19C141.227 186.504 141.44 187.81 141.717 189.102C142.262 191.777 142.877 194.537 143.666 197.272C144.455 200.008 145.128 202.791 145.916 205.551L148.236 213.83L143.933 215.665C141.288 210.434 138.991 205.107 136.845 199.612C135.813 196.852 134.804 194.069 133.968 191.129C133.551 189.665 133.156 188.166 132.808 186.534C132.643 185.67 132.527 184.797 132.46 183.918C132.46 183.474 132.46 182.815 132.46 182.419V181.219C132.559 178.162 132.83 175.113 133.272 172.088C133.655 169.089 134.224 166.161 134.838 163.246C136.045 157.407 137.595 151.649 139.478 146.005L148.399 149.208Z" fill="#FFC3BD"/>
<path d="M143.608 134.966C139.664 136.166 134.92 150.264 134.92 150.264L150.232 161.59C150.232 161.59 155.823 149.856 154.164 144.577C152.436 139.082 148.12 133.55 143.608 134.966Z" fill="#90CAF9"/>
<path opacity="0.4" d="M143.608 134.966C139.664 136.166 134.92 150.264 134.92 150.264L150.232 161.59C150.232 161.59 155.823 149.856 154.164 144.577C152.436 139.082 148.12 133.55 143.608 134.966Z" fill="white"/>
<path d="M122.45 398.12C122.638 398.051 122.81 397.94 122.952 397.795C123.095 397.65 123.204 397.474 123.273 397.28C123.34 397.155 123.375 397.015 123.375 396.872C123.375 396.729 123.34 396.589 123.273 396.464C122.577 395.408 119.062 395.492 118.633 395.504C118.589 395.505 118.545 395.519 118.508 395.545C118.471 395.57 118.442 395.606 118.424 395.648C118.402 395.686 118.39 395.73 118.39 395.774C118.39 395.819 118.402 395.862 118.424 395.9C119.341 396.848 121.058 398.396 122.264 398.156L122.45 398.12ZM119.19 395.936C120.594 395.936 122.473 396.14 122.844 396.704C122.876 396.758 122.892 396.821 122.892 396.884C122.892 396.948 122.876 397.01 122.844 397.064C122.793 397.209 122.708 397.338 122.596 397.441C122.485 397.543 122.351 397.616 122.206 397.652C121.568 397.82 120.454 397.136 119.19 395.936Z" fill="#90CAF9"/>
<path d="M120.222 395.684C121.29 395.336 122.426 394.724 122.67 394.041C122.731 393.863 122.731 393.669 122.672 393.49C122.614 393.312 122.498 393.159 122.345 393.057C122.21 392.94 122.051 392.857 121.88 392.813C121.709 392.77 121.531 392.767 121.359 392.805C119.979 393.057 118.494 395.504 118.436 395.612C118.416 395.649 118.405 395.69 118.405 395.732C118.405 395.774 118.416 395.816 118.436 395.852C118.457 395.887 118.486 395.917 118.52 395.938C118.555 395.959 118.593 395.97 118.633 395.972C119.174 395.956 119.709 395.859 120.222 395.684ZM121.29 393.285H121.44C121.549 393.261 121.662 393.263 121.771 393.29C121.879 393.317 121.98 393.368 122.067 393.441C122.299 393.633 122.276 393.777 122.241 393.885C122.009 394.545 120.246 395.336 119.074 395.492C119.607 394.57 120.373 393.815 121.29 393.309V393.285Z" fill="#90CAF9"/>
<path d="M186.667 422.26C187.485 422.329 188.301 422.114 188.987 421.648C189.147 421.499 189.268 421.311 189.341 421.102C189.414 420.893 189.436 420.668 189.405 420.448C189.396 420.318 189.355 420.193 189.286 420.084C189.217 419.974 189.122 419.885 189.01 419.824C187.85 419.152 183.964 421.192 183.524 421.42C183.481 421.438 183.445 421.469 183.419 421.508C183.393 421.548 183.38 421.594 183.38 421.642C183.38 421.69 183.393 421.736 183.419 421.776C183.445 421.815 183.481 421.846 183.524 421.864C184.556 422.105 185.609 422.238 186.667 422.26ZM188.396 420.184C188.543 420.175 188.691 420.204 188.825 420.268C188.871 420.294 188.909 420.332 188.935 420.379C188.962 420.425 188.976 420.478 188.976 420.532C188.997 420.67 188.985 420.812 188.941 420.944C188.896 421.076 188.82 421.194 188.72 421.288C188.129 421.84 186.528 421.936 184.382 421.564C185.635 420.872 186.992 420.406 188.396 420.184Z" fill="#90CAF9"/>
<path d="M183.663 421.912H183.756C184.916 421.372 187.236 419.212 187.027 418.073C187.027 417.797 186.795 417.473 186.157 417.401C185.928 417.374 185.697 417.397 185.478 417.467C185.258 417.537 185.055 417.654 184.881 417.809C183.721 418.865 183.442 421.564 183.431 421.672C183.429 421.714 183.438 421.756 183.456 421.794C183.475 421.832 183.502 421.864 183.535 421.888C183.573 421.913 183.619 421.921 183.663 421.912ZM185.983 417.845H186.122C186.54 417.845 186.574 418.073 186.574 418.121C186.69 418.804 185.136 420.52 183.953 421.252C184.046 420.112 184.479 419.03 185.194 418.157C185.407 417.957 185.684 417.845 185.971 417.845H185.983Z" fill="#90CAF9"/>
<path d="M150 193.421L149.002 197.02C148.863 197.296 149.188 197.584 149.64 197.584H190.24C190.6 197.584 190.89 197.404 190.913 197.176L191.272 193.577C191.272 193.325 190.982 193.109 190.6 193.109H150.649C150.524 193.099 150.399 193.122 150.285 193.177C150.171 193.232 150.073 193.316 150 193.421Z" fill="#263238"/>
<path d="M155.359 198.028H154.28C154.071 198.028 153.909 197.92 153.92 197.776L154.419 192.977C154.419 192.845 154.628 192.725 154.837 192.725H155.904C156.124 192.725 156.275 192.845 156.264 192.977L155.765 197.776C155.765 197.968 155.579 198.028 155.359 198.028Z" fill="#90CAF9"/>
<path opacity="0.4" d="M155.359 198.028H154.28C154.071 198.028 153.909 197.92 153.92 197.776L154.419 192.977C154.419 192.845 154.628 192.725 154.837 192.725H155.904C156.124 192.725 156.275 192.845 156.264 192.977L155.765 197.776C155.765 197.968 155.579 198.028 155.359 198.028Z" fill="black"/>
<path d="M187.178 198.028H186.11C185.902 198.028 185.739 197.92 185.751 197.776L186.261 192.977C186.261 192.845 186.458 192.725 186.667 192.725H187.734C187.955 192.725 188.117 192.845 188.094 192.977L187.595 197.776C187.584 197.968 187.398 198.028 187.178 198.028Z" fill="#90CAF9"/>
<path opacity="0.4" d="M187.178 198.028H186.11C185.902 198.028 185.739 197.92 185.751 197.776L186.261 192.977C186.261 192.845 186.458 192.725 186.667 192.725H187.734C187.955 192.725 188.117 192.845 188.094 192.977L187.595 197.776C187.584 197.968 187.398 198.028 187.178 198.028Z" fill="black"/>
<path d="M171.274 198.028H170.207C169.986 198.028 169.824 197.92 169.847 197.776L170.346 192.977C170.346 192.845 170.543 192.725 170.764 192.725H171.831C172.04 192.725 172.202 192.845 172.19 192.977L171.692 197.776C171.68 197.968 171.483 198.028 171.274 198.028Z" fill="#90CAF9"/>
<path opacity="0.4" d="M171.274 198.028H170.207C169.986 198.028 169.824 197.92 169.847 197.776L170.346 192.977C170.346 192.845 170.543 192.725 170.764 192.725H171.831C172.04 192.725 172.202 192.845 172.19 192.977L171.692 197.776C171.68 197.968 171.483 198.028 171.274 198.028Z" fill="black"/>
<path d="M172.074 99.8119L173.826 98.9241C173.826 98.9241 173.13 100.592 172.074 99.8119Z" fill="#263238"/>
<path d="M147.912 212.474L156.229 219.073L146.589 221.268C146.589 221.268 142.494 216.469 143.91 212.51L147.912 212.474Z" fill="#FFC3BD"/>
<path d="M158.27 227.243L150.104 228.623L145.65 219.961L156.229 219.073L158.27 227.243Z" fill="#FFC3BD"/>
</svg>
